<svg width="17" height="17" viewBox="0 0 17 17" fill="none" xmlns="http://www.w3.org/2000/svg">
<path d="M13.4035 6.24019C13.3018 6.24008 13.2002 6.23309 13.0994 6.21927C12.5054 6.13959 11.9207 5.8381 11.4535 5.37093C10.9863 4.90343 10.6848 4.31906 10.6048 3.72472C10.5195 3.08988 10.7021 2.49388 11.1065 2.08947C11.5109 1.68506 12.1069 1.50211 12.7418 1.58777C13.3361 1.66779 13.9208 1.96894 14.388 2.43644C14.8552 2.90394 15.1567 3.48832 15.2367 4.08232C15.322 4.7175 15.1391 5.31349 14.735 5.71791C14.396 6.05658 13.9222 6.24019 13.4035 6.24019ZM12.1577 4.66636C12.4669 4.97582 12.8587 5.18201 13.2325 5.23082C13.5616 5.27531 13.8451 5.19761 14.0294 5.01201C14.2137 4.8264 14.2927 4.54318 14.2482 4.21513C14.1981 3.84127 13.9919 3.44947 13.6838 3.14035C13.0824 2.53904 12.2245 2.38033 11.8108 2.79371C11.397 3.20709 11.5561 4.06505 12.1577 4.66636Z" fill="#B8B8B8"/>
<path d="M6.28799 13.3556C6.18637 13.3556 6.08487 13.3487 5.98418 13.335C5.38985 13.255 4.80514 12.9539 4.33797 12.4864C3.8708 12.0189 3.56932 11.4345 3.4893 10.8405C3.40397 10.2053 3.58692 9.60931 3.991 9.2049C4.08443 9.11147 4.21115 9.05898 4.34328 9.05898C4.47542 9.05898 4.60214 9.11147 4.69557 9.2049C4.789 9.29833 4.84149 9.42505 4.84149 9.55718C4.84149 9.68932 4.789 9.81604 4.69557 9.90947C4.50996 10.0947 4.43227 10.3783 4.47643 10.7063C4.5269 11.0802 4.73309 11.472 5.04088 11.7811C5.64518 12.3848 6.50149 12.5425 6.9152 12.1291C6.96114 12.0815 7.0161 12.0436 7.07686 12.0175C7.13763 11.9914 7.20298 11.9776 7.26911 11.9771C7.33524 11.9765 7.40082 11.9891 7.46203 12.0141C7.52324 12.0392 7.57885 12.0762 7.62561 12.1229C7.67237 12.1697 7.70936 12.2253 7.7344 12.2865C7.75944 12.3477 7.77204 12.4133 7.77147 12.4794C7.77089 12.5456 7.75715 12.6109 7.73105 12.6717C7.70495 12.7324 7.66701 12.7874 7.61944 12.8333C7.28043 13.1723 6.80729 13.3556 6.28799 13.3556Z" fill="#B8B8B8"/>
<path d="M2.38049 14.9414C2.30593 14.9414 2.23233 14.9246 2.16511 14.8924C2.09789 14.8601 2.03878 14.8132 1.99212 14.755C1.94547 14.6968 1.91247 14.6289 1.89555 14.5563C1.87864 14.4837 1.87824 14.4082 1.8944 14.3354C1.90303 14.2966 2.10889 13.3725 2.39477 12.3532C2.93133 10.4407 3.25506 9.94034 3.47719 9.71821L11.1063 2.08946C11.1522 2.0419 11.2072 2.00395 11.2679 1.97785C11.3287 1.95175 11.3941 1.93801 11.4602 1.93743C11.5263 1.93686 11.5919 1.94946 11.6531 1.9745C11.7143 1.99955 11.7699 2.03653 11.8167 2.08329C11.8634 2.13005 11.9004 2.18566 11.9255 2.24687C11.9505 2.30808 11.9631 2.37366 11.9625 2.43979C11.962 2.50592 11.9482 2.57127 11.9221 2.63204C11.896 2.6928 11.8581 2.74776 11.8105 2.7937L4.18176 10.4228C4.15155 10.4527 3.87397 10.7691 3.35368 12.6225C3.23713 13.0379 3.13288 13.4423 3.05153 13.7726C3.38356 13.6906 3.78897 13.5864 4.20534 13.4692C6.05541 12.9499 6.37151 12.6723 6.40139 12.6424L14.0301 5.01366C14.1235 4.92023 14.2502 4.86772 14.3823 4.86769C14.5144 4.86766 14.6411 4.92011 14.7345 5.0135C14.828 5.10688 14.8805 5.23356 14.8805 5.36566C14.8805 5.49777 14.8281 5.62447 14.7347 5.7179L7.10563 13.3476C6.8835 13.5698 6.38346 13.8935 4.47063 14.4304C3.45295 14.7159 2.52725 14.9218 2.4884 14.9304C2.45294 14.938 2.41675 14.9417 2.38049 14.9414Z" fill="#B8B8B8"/>
<path d="M13.0038 4.48476C12.9384 4.48474 12.8736 4.47183 12.8131 4.44677C12.7527 4.4217 12.6978 4.38496 12.6515 4.33866L12.4855 4.17265C12.3948 4.07871 12.3446 3.9529 12.3457 3.82231C12.3469 3.69173 12.3992 3.56681 12.4916 3.47447C12.5839 3.38212 12.7088 3.32974 12.8394 3.32861C12.97 3.32747 13.0958 3.37768 13.1898 3.4684L13.3558 3.63442C13.4255 3.70405 13.4729 3.79279 13.4922 3.8894C13.5114 3.98601 13.5016 4.08616 13.4639 4.17718C13.4263 4.2682 13.3624 4.34601 13.2805 4.40075C13.1986 4.4555 13.1023 4.48474 13.0038 4.48476Z" fill="#B8B8B8"/>
</svg>
