<svg width="24" height="24" viewBox="0 0 24 24" fill="none" xmlns="http://www.w3.org/2000/svg">
<rect width="24" height="24" rx="12" fill="#728648"/>
<path fill-rule="evenodd" clip-rule="evenodd" d="M16.2627 9.71091H20.1818C20.6318 9.71091 21 10.0791 21 10.5291L20.9755 10.75L18.8973 18.3345C18.7009 19.0218 18.0709 19.5291 17.3182 19.5291H6.68182C5.92909 19.5291 5.29909 19.0218 5.11091 18.3345L3.03273 10.75C3.00818 10.6764 3 10.6027 3 10.5291C3 10.0791 3.36818 9.71091 3.81818 9.71091H7.73727L11.3209 4.35182C11.4764 4.11455 11.7382 4 12 4C12.2618 4 12.5236 4.11455 12.6791 4.34364L16.2627 9.71091ZM14.2909 9.71094L12 6.27457L9.70906 9.71094H14.2909ZM17.3183 17.8927L6.69011 17.9009L4.89011 11.3473H19.1183L17.3183 17.8927ZM10.3636 14.62C10.3636 13.72 11.1 12.9836 12 12.9836C12.9 12.9836 13.6363 13.72 13.6363 14.62C13.6363 15.52 12.9 16.2564 12 16.2564C11.1 16.2564 10.3636 15.52 10.3636 14.62Z" fill="white"/>
</svg>
