<svg width="18" height="16" viewBox="0 0 18 16" fill="none" xmlns="http://www.w3.org/2000/svg">
<path fill-rule="evenodd" clip-rule="evenodd" d="M13.2627 5.71091H17.1818C17.6318 5.71091 18 6.07909 18 6.52909L17.9755 6.75L15.8973 14.3345C15.7009 15.0218 15.0709 15.5291 14.3182 15.5291H3.68182C2.92909 15.5291 2.29909 15.0218 2.11091 14.3345L0.0327273 6.75C0.00818182 6.67636 0 6.60273 0 6.52909C0 6.07909 0.368182 5.71091 0.818182 5.71091H4.73727L8.32091 0.351818C8.47636 0.114545 8.73818 0 9 0C9.26182 0 9.52364 0.114545 9.67909 0.343636L13.2627 5.71091ZM11.2909 5.71093L9.00001 2.27457L6.7091 5.71093H11.2909ZM14.3182 13.8927L3.69 13.9009L1.89 7.34726H16.1182L14.3182 13.8927ZM7.36364 10.62C7.36364 9.71998 8.1 8.98362 9 8.98362C9.9 8.98362 10.6364 9.71998 10.6364 10.62C10.6364 11.52 9.9 12.2563 9 12.2563C8.1 12.2563 7.36364 11.52 7.36364 10.62Z" fill="#989898"/>
</svg>
