<svg width="24" height="24" viewBox="0 0 24 24" fill="none" xmlns="http://www.w3.org/2000/svg">
<rect width="24" height="24" rx="12" fill="#728648"/>
<path fill-rule="evenodd" clip-rule="evenodd" d="M12 5C10.0662 5 8.5 6.56625 8.5 8.5C8.5 10.4338 10.0662 12 12 12C13.9338 12 15.5 10.4338 15.5 8.5C15.5 6.56625 13.9338 5 12 5ZM13.75 8.5C13.75 7.5375 12.9625 6.75 12 6.75C11.0375 6.75 10.25 7.5375 10.25 8.5C10.25 9.4625 11.0375 10.25 12 10.25C12.9625 10.25 13.75 9.4625 13.75 8.5ZM17.25 16.375C17.075 15.7537 14.3625 14.625 12 14.625C9.6375 14.625 6.925 15.7537 6.75 16.3837V17.25H17.25V16.375ZM5 16.375C5 14.0475 9.66375 12.875 12 12.875C14.3363 12.875 19 14.0475 19 16.375V19H5V16.375Z" fill="white"/>
</svg>
