<svg width="67" height="67" viewBox="0 0 67 67" fill="none" xmlns="http://www.w3.org/2000/svg">
<path d="M60.152 10.8491L34.5036 0.200129C33.861 -0.0665627 33.1388 -0.0666936 32.4964 0.200129L6.848 10.8491C5.87114 11.2547 5.23438 12.2084 5.23438 13.2662V26.2114C5.23438 44.0362 16.0079 60.07 32.511 66.806C33.1448 67.0647 33.855 67.0647 34.489 66.806C50.9918 60.0701 61.7656 44.0363 61.7656 26.2114V13.2662C61.7656 12.2084 61.129 11.2547 60.152 10.8491ZM56.5312 26.2114C56.5312 41.3643 47.6328 55.3135 33.5 61.5401C19.7448 55.4798 10.4688 41.7749 10.4688 26.2114V15.0134L33.5 5.45099L56.5312 15.0134V26.2114ZM30.6072 35.0332L41.8564 23.7841C42.8784 22.7621 44.5355 22.762 45.5576 23.7841C46.5798 24.8063 46.5797 26.4633 45.5575 27.4854L32.4578 40.585C31.4356 41.6073 29.7785 41.6069 28.7566 40.585L21.4424 33.2708C20.4202 32.2486 20.4202 30.5916 21.4424 29.5696C22.4645 28.5475 24.1216 28.5474 25.1436 29.5696L30.6072 35.0332Z" fill="#628F00"/>
</svg>
